# xmcd
#
# Track frame offsets: 
#        150
#        15032
#        39922
#        57215
#        69672
#        89282
#        102700
#        115230
#        130397
#        144872
#        157665
#        179587
#        193120
#
# Disc length: 2831 seconds
#
# Revision: 2
# Processed by: cddbd v1.5.2PL0 Copyright (c) Steve Scherf et al.
# Submitted via: ExactAudioCopy v0.95a4
#
DISCID=a70b0d0d
DTITLE=The Smokin' Joe Kubek Band Featuring  Bnois King - Chain Smokin
DTITLE=' Texas Style
DYEAR=1992
DGENRE=Blues
TTITLE0=Way Down There
TTITLE1=Just For A Little While
TTITLE2=Love To Live The Life
TTITLE3=That's What I'll Do For You
TTITLE4=Little Girl
TTITLE5=Good Understanding
TTITLE6=Overdues
TTITLE7=Come By Here
TTITLE8=I'm On My Way
TTITLE9=Chain Smokin'
TTITLE10=Walk With You
TTITLE11=Soft Touch
TTITLE12=Can't Quit My Baby
EXTD=
EXTT0=
EXTT1=
EXTT2=
EXTT3=
EXTT4=
EXTT5=
EXTT6=
EXTT7=
EXTT8=
EXTT9=
EXTT10=
EXTT11=
EXTT12=
PLAYORDER=
